<svg width="10" height="10" viewBox="0 0 10 10" fill="none" xmlns="http://www.w3.org/2000/svg">
<path d="M5 5C4.3125 5 3.72396 4.75521 3.23438 4.26562C2.74479 3.77604 2.5 3.1875 2.5 2.5C2.5 1.8125 2.74479 1.22396 3.23438 0.734375C3.72396 0.244792 4.3125 0 5 0C5.6875 0 6.27604 0.244792 6.76562 0.734375C7.25521 1.22396 7.5 1.8125 7.5 2.5C7.5 3.1875 7.25521 3.77604 6.76562 4.26562C6.27604 4.75521 5.6875 5 5 5ZM0 10V8.25C0 7.89583 0.0912501 7.57021 0.27375 7.27313C0.455833 6.97646 0.697917 6.75 1 6.59375C1.64583 6.27083 2.30208 6.02854 2.96875 5.86688C3.63542 5.70563 4.3125 5.625 5 5.625C5.6875 5.625 6.36458 5.70563 7.03125 5.86688C7.69792 6.02854 8.35417 6.27083 9 6.59375C9.30208 6.75 9.54417 6.97646 9.72625 7.27313C9.90875 7.57021 10 7.89583 10 8.25V10H0Z" fill="#6E6F71"/>
</svg>
