<svg width="20" height="16" viewBox="0 0 20 16" fill="none" xmlns="http://www.w3.org/2000/svg">
<path d="M17.633 3.99692C17.646 4.17192 17.646 4.34592 17.646 4.51992C17.646 9.84492 13.593 15.9809 6.186 15.9809C3.904 15.9809 1.784 15.3199 0 14.1719C0.324 14.2089 0.636 14.2219 0.973 14.2219C2.856 14.2219 4.589 13.5859 5.974 12.5009C4.203 12.4639 2.719 11.3039 2.207 9.70792C2.456 9.74492 2.706 9.76992 2.968 9.76992C3.329 9.76992 3.692 9.71992 4.029 9.63292C2.182 9.25892 0.799 7.63792 0.799 5.67992V5.62992C1.336 5.92892 1.959 6.11592 2.619 6.14092C1.534 5.41892 0.823 4.18392 0.823 2.78692C0.823 2.03892 1.022 1.35292 1.371 0.754921C3.354 3.19792 6.335 4.79492 9.677 4.96992C9.615 4.66992 9.577 4.35892 9.577 4.04692C9.577 1.82692 11.373 0.0189209 13.605 0.0189209C14.765 0.0189209 15.812 0.504921 16.548 1.29092C17.458 1.11592 18.33 0.778921 19.104 0.317921C18.805 1.25292 18.168 2.03892 17.333 2.53792C18.144 2.44992 18.93 2.22592 19.652 1.91392C19.104 2.71192 18.419 3.42292 17.633 3.99692Z" fill="white"/>
</svg>
