<svg width="39" height="41" viewBox="0 0 39 41" fill="none" xmlns="http://www.w3.org/2000/svg">
<path d="M38.3908 0H0V40.2925H38.3908V0Z" fill="#F1F3F4"/>
<path d="M14.5881 13.1992H11.5168V15.978H14.5881V13.1992Z" fill="#007193"/>
<path d="M14.5881 18.7568H11.5168V21.5356H14.5881V18.7568Z" fill="#007193"/>
<path d="M14.5881 24.3144H11.5168V27.0932H14.5881V24.3144Z" fill="#007193"/>
<path d="M20.7309 13.1992H17.6597V15.978H20.7309V13.1992Z" fill="#007193"/>
<path d="M20.7309 18.7568H17.6597V21.5356H20.7309V18.7568Z" fill="#007193"/>
<path d="M17.6597 24.3144H20.7309V27.0932H17.6597V24.3144Z" fill="#007193"/>
<path d="M26.8733 13.1992H23.802V15.978H26.8733V13.1992Z" fill="#007193"/>
<path d="M26.8733 18.7568H23.802V21.5356H26.8733V18.7568Z" fill="#007193"/>
<path d="M26.8733 24.3144H23.802V27.0932H26.8733V24.3144Z" fill="#007193"/>
</svg>
