<svg width="40" height="40" viewBox="0 0 40 40" fill="none" xmlns="http://www.w3.org/2000/svg">
<path d="M9.99992 23.3333H23.3333V20H9.99992V23.3333ZM9.99992 18.3333H29.9999V15H9.99992V18.3333ZM9.99992 13.3333H29.9999V10H9.99992V13.3333ZM3.33325 36.6667V6.66667C3.33325 5.75 3.65992 4.965 4.31325 4.31167C4.96547 3.65944 5.74992 3.33333 6.66659 3.33333H33.3333C34.2499 3.33333 35.0349 3.65944 35.6883 4.31167C36.3405 4.965 36.6666 5.75 36.6666 6.66667V26.6667C36.6666 27.5833 36.3405 28.3683 35.6883 29.0217C35.0349 29.6739 34.2499 30 33.3333 30H9.99992L3.33325 36.6667Z" fill="#007193"/>
</svg>
