<svg width="18" height="18" viewBox="0 0 18 18" fill="none" xmlns="http://www.w3.org/2000/svg">
<path fill-rule="evenodd" clip-rule="evenodd" d="M13.5 -0.00012207H4.5C2.02522 -0.00012207 0 2.0242 0 4.49988V13.4999C0 15.9747 2.02522 17.9999 4.5 17.9999H13.5C15.9748 17.9999 18 15.9747 18 13.4999V4.49988C18 2.0242 15.9748 -0.00012207 13.5 -0.00012207ZM9 12.7497C6.92865 12.7497 5.24993 11.0703 5.24993 8.99988C5.24993 6.92853 6.92865 5.2498 9 5.2498C11.0704 5.2498 12.7501 6.92853 12.7501 8.99988C12.7501 11.0703 11.0704 12.7497 9 12.7497ZM12.7501 4.1248C12.7501 4.74603 13.2532 5.2498 13.8751 5.2498C14.497 5.2498 15.0001 4.74603 15.0001 4.1248C15.0001 3.50358 14.497 2.9998 13.8751 2.9998C13.2532 2.9998 12.7501 3.50358 12.7501 4.1248Z" fill="white"/>
</svg>
