<svg width="48" height="47" viewBox="0 0 48 47" fill="none" xmlns="http://www.w3.org/2000/svg">
<g opacity="0.25">
<path opacity="0.25" d="M23.7547 46.5391C36.5764 46.5391 46.9705 36.3449 46.9705 23.7697C46.9705 11.1945 36.5764 1.00031 23.7547 1.00031C10.9329 1.00031 0.538818 11.1945 0.538818 23.7697C0.538818 36.3449 10.9329 46.5391 23.7547 46.5391Z" fill="#007193"/>
<path opacity="0.25" d="M23.7548 45.6461C36.0834 45.6461 46.0778 35.8517 46.0778 23.7697C46.0778 11.6876 36.0834 1.89319 23.7548 1.89319C11.4262 1.89319 1.43188 11.6876 1.43188 23.7697C1.43188 35.8517 11.4262 45.6461 23.7548 45.6461Z" fill="#007193" stroke="#33A0FF" stroke-width="2"/>
</g>
<path fill-rule="evenodd" clip-rule="evenodd" d="M26.3763 18.4462C26.9512 18.4467 27.5137 18.6133 27.9962 18.9257C28.4788 19.2382 28.8608 19.6834 29.0966 20.2077C29.3323 20.7321 29.4117 21.3133 29.3251 21.8817C29.2385 22.45 28.9897 22.9813 28.6086 23.4116C28.0612 24.0286 23.394 28.3977 23.394 28.3977C23.394 28.3977 18.7169 24.0287 18.1695 23.4018C17.6863 22.8594 17.4204 22.1576 17.423 21.4312C17.4366 20.6483 17.757 19.9021 18.3155 19.3532C18.8739 18.8044 19.6255 18.4969 20.4085 18.4969C21.1915 18.4969 21.9431 18.8044 22.5015 19.3532C23.0599 19.9021 23.3804 20.6483 23.394 21.4312C23.394 21.0391 23.4712 20.6508 23.6212 20.2885C23.7713 19.9262 23.9913 19.5971 24.2685 19.3198C24.5458 19.0426 24.8749 18.8226 25.2372 18.6725C25.5995 18.5225 25.9878 18.4453 26.3799 18.4453L26.3763 18.4462ZM26.3799 16.455C25.3028 16.4531 24.2544 16.8026 23.394 17.4506C22.4082 16.7189 21.1868 16.3774 19.9646 16.4918C18.7423 16.6062 17.6054 17.1683 16.7725 18.0701C15.9396 18.9719 15.4694 20.1498 15.4524 21.3772C15.4353 22.6047 15.8726 23.7952 16.6801 24.7198C17.2391 25.3609 20.9206 28.8076 22.0376 29.8487C22.4063 30.1935 22.8923 30.3853 23.3971 30.3853C23.9019 30.3853 24.3878 30.1935 24.7565 29.8487C25.8673 28.8085 29.5336 25.3707 30.0997 24.7305C30.7349 24.013 31.1494 23.1274 31.2934 22.1801C31.4375 21.2327 31.3049 20.2639 30.9117 19.3901C30.5185 18.5162 29.8813 17.7745 29.0768 17.254C28.2722 16.7335 27.3345 16.4563 26.3763 16.4558L26.3799 16.455Z" fill="#007193"/>
</svg>
