<svg width="46" height="46" viewBox="0 0 46 46" fill="none" xmlns="http://www.w3.org/2000/svg">
<circle cx="23" cy="23" r="23" fill="#007193"/>
<path d="M27.7233 25.7153H26.7296L26.3774 25.3786C27.6527 23.9124 28.3536 22.0405 28.3522 20.1045C28.3522 18.5016 27.8727 16.9347 26.9743 15.6019C26.0759 14.2691 24.7989 13.2303 23.305 12.6169C21.811 12.0035 20.167 11.843 18.581 12.1557C16.995 12.4684 15.5382 13.2403 14.3947 14.3738C13.2513 15.5072 12.4726 16.9513 12.1571 18.5234C11.8416 20.0955 12.0035 21.725 12.6224 23.2059C13.2412 24.6868 14.2892 25.9526 15.6337 26.8431C16.9783 27.7337 18.559 28.209 20.1761 28.209C22.2013 28.209 24.0629 27.4733 25.4969 26.2514L25.8365 26.6005V27.5855L32.1258 33.8073L34 31.9495L27.7233 25.7153ZM20.1761 25.7153C17.044 25.7153 14.5157 23.2091 14.5157 20.1045C14.5157 16.9998 17.044 14.4937 20.1761 14.4937C23.3082 14.4937 25.8365 16.9998 25.8365 20.1045C25.8365 23.2091 23.3082 25.7153 20.1761 25.7153Z" fill="white"/>
</svg>
