<svg width="11" height="12" viewBox="0 0 11 12" fill="none" xmlns="http://www.w3.org/2000/svg">
<path fill-rule="evenodd" clip-rule="evenodd" d="M8.96378 8.32526C9.27108 8.32473 9.56869 8.21765 9.80587 8.02226C10.0431 7.82687 10.2051 7.55529 10.2645 7.25378L10.9309 3.92201C10.9694 3.7289 10.9648 3.52963 10.9171 3.33854C10.8695 3.14746 10.7802 2.96931 10.6555 2.8169C10.5308 2.66448 10.3739 2.54156 10.196 2.45704C10.0181 2.37252 9.82372 2.32848 9.6268 2.32807H2.99258V1.66172C2.99258 1.48499 2.92236 1.31551 2.7974 1.19054C2.67243 1.06558 2.50295 0.995361 2.32622 0.995361H0.999513C0.822785 0.995361 0.653285 1.06558 0.528319 1.19054C0.403353 1.31551 0.333159 1.48499 0.333159 1.66172C0.333159 1.83844 0.403353 2.00792 0.528319 2.13289C0.653285 2.25786 0.822785 2.32807 0.999513 2.32807H1.66587V8.99161C1.40203 8.99043 1.14377 9.06759 0.923825 9.21331C0.703874 9.35903 0.532112 9.56674 0.430322 9.81016C0.328533 10.0536 0.301287 10.3217 0.352031 10.5806C0.402774 10.8395 0.529224 11.0776 0.715365 11.2646C0.901507 11.4515 1.13896 11.579 1.39764 11.631C1.65632 11.6829 1.92461 11.6569 2.16848 11.5562C2.41235 11.4555 2.62084 11.2846 2.76754 11.0653C2.91425 10.8461 2.99257 10.5882 2.99258 10.3243H7.6364C7.63745 10.5866 7.7162 10.8427 7.86269 11.0603C8.00918 11.2779 8.21686 11.4472 8.4595 11.5469C8.70213 11.6465 8.96885 11.672 9.22598 11.6202C9.48312 11.5684 9.71913 11.4415 9.90423 11.2557C10.0893 11.0698 10.2152 10.8333 10.266 10.576C10.3168 10.3187 10.2902 10.052 10.1896 9.80979C10.089 9.56756 9.91884 9.36056 9.70068 9.21494C9.48251 9.06932 9.22608 8.99162 8.96378 8.99161H2.99258V8.32526H8.96378ZM9.63013 3.66078L8.96378 6.99255H2.99258V3.66078H9.6268H9.63013Z" fill="#007193"/>
</svg>
