<svg width="47" height="47" viewBox="0 0 47 47" fill="none" xmlns="http://www.w3.org/2000/svg">
<g opacity="0.25">
<path opacity="0.25" d="M23.7694 46.5388C36.3446 46.5388 46.5388 36.3446 46.5388 23.7694C46.5388 11.1942 36.3446 1 23.7694 1C11.1942 1 1 11.1942 1 23.7694C1 36.3446 11.1942 46.5388 23.7694 46.5388Z" fill="#007193"/>
<path opacity="0.25" d="M23.7695 45.6459C35.8516 45.6459 45.646 35.8515 45.646 23.7694C45.646 11.6874 35.8516 1.89294 23.7695 1.89294C11.6875 1.89294 1.89307 11.6874 1.89307 23.7694C1.89307 35.8515 11.6875 45.6459 23.7695 45.6459Z" fill="#007193" stroke="#33A0FF" stroke-width="2"/>
</g>
<path fill-rule="evenodd" clip-rule="evenodd" d="M29.1752 26.4081C29.6342 26.4075 30.0788 26.2476 30.4331 25.9558C30.7874 25.664 31.0296 25.2584 31.1182 24.808L32.1138 19.8318C32.1715 19.5434 32.1645 19.2458 32.0934 18.9604C32.0223 18.675 31.8888 18.409 31.7026 18.1813C31.5164 17.9537 31.2821 17.7701 31.0164 17.6439C30.7508 17.5177 30.4605 17.4519 30.1664 17.4513H20.255V16.4557C20.2547 16.1924 20.1502 15.9399 19.9643 15.7535C19.7784 15.5671 19.5262 15.4619 19.263 15.4609H17.2851C17.0264 15.4687 16.7808 15.5769 16.6005 15.7627C16.4202 15.9485 16.3194 16.1972 16.3194 16.4561C16.3194 16.715 16.4202 16.9637 16.6005 17.1495C16.7808 17.3353 17.0264 17.4435 17.2851 17.4513H18.2807V27.4028C17.8867 27.4011 17.501 27.5163 17.1725 27.7339C16.8441 27.9515 16.5876 28.2617 16.4356 28.6253C16.2836 28.9888 16.2429 29.3892 16.3187 29.7759C16.3944 30.1626 16.5833 30.5181 16.8613 30.7973C17.1393 31.0766 17.4939 31.267 17.8802 31.3445C18.2665 31.422 18.6672 31.3832 19.0314 31.2328C19.3956 31.0824 19.707 30.8273 19.9261 30.4998C20.1452 30.1723 20.2621 29.7872 20.2621 29.3932H27.1965C27.1981 29.7849 27.3157 30.1673 27.5345 30.4922C27.7533 30.8172 28.0634 31.07 28.4258 31.2188C28.7881 31.3676 29.1864 31.4057 29.5704 31.3283C29.9544 31.2509 30.3069 31.0615 30.5833 30.7839C30.8597 30.5064 31.0477 30.1532 31.1236 29.7689C31.1994 29.3846 31.1597 28.9864 31.0094 28.6247C30.8591 28.2629 30.6051 27.9538 30.2793 27.7363C29.9535 27.5189 29.5705 27.4028 29.1788 27.4028H20.2612V26.4081H29.1752ZM30.1708 19.4434L29.1752 24.4196H20.2576V19.4434H30.169H30.1708Z" fill="#007193"/>
</svg>
